<?xml version="1.0" encoding="UTF-8"?>
<svg width="110px" height="42px" viewBox="0 0 131 30" version="1.1" xmlns="http://www.w3.org/2000/svg" xmlns:xlink="http://www.w3.org/1999/xlink">
    <!-- Generator: Sketch 55.2 (78181) - https://sketchapp.com -->
    <title>pharox-menu-logo</title>
    <desc>Created with Sketch.</desc>
    <g id="Page-1" stroke="none" stroke-width="1" fill="none" fill-rule="evenodd">
        <g id="pharox-menu-logo" fill="#FFFFFF" fill-rule="nonzero">
            <g id="Brand/Vignet" transform="translate(0.000000, 0.330252)">
                <path d="M13.7003925,2.71848287 C12.938133,2.72599868 12.3236179,3.4091457 12.3304981,4.24181766 C12.3377405,5.07409405 12.9638434,5.74576959 13.7257408,5.73785823 C14.4880003,5.73034241 15.1025155,5.04640425 15.0956352,4.21373228 C15.0883929,3.3814559 14.462652,2.71096707 13.7003925,2.71848287 Z M13.524765,23.9197746 C12.7628676,23.9272904 12.1483525,24.6104374 12.1552327,25.4431094 C12.162113,26.2753858 12.7882159,26.9470613 13.5504755,26.9391499 C14.312735,26.9316341 14.9272501,26.247696 14.9200077,25.4154196 C14.9131275,24.5827476 14.2870245,23.9122588 13.524765,23.9197746 Z M1.38256856,13.3193265 C0.620309042,13.3193265 0,13.9961445 0,14.8284208 C0,15.6610928 0.620309042,16.3387019 1.38256856,16.3387019 C2.14446594,16.3387019 2.76513711,15.6610928 2.76513711,14.8284208 C2.76513711,13.9961445 2.14446594,13.3193265 1.38256856,13.3193265 Z M24.623698,10.8454404 L24.623698,4.64015527 L15.296611,14.8284208 L24.623698,25.0182687 L24.623698,18.8125881 C25.0162345,18.9597396 25.430136,19.0566539 25.8679373,19.0566539 C26.3053765,19.0566539 26.719278,18.9597396 27.1118144,18.8125881 L27.1118144,28.2987193 C27.1118144,28.8481641 26.8087213,29.3434161 26.3441232,29.5542541 C26.1902228,29.6238742 26.0283558,29.6574975 25.8679373,29.6574975 C25.5445654,29.6574975 25.2262633,29.5198396 24.9883514,29.2595555 L13.6250719,16.8458208 L2.26179235,29.2595555 C2.02388047,29.5198396 1.70557828,29.6574975 1.38256856,29.6574975 C1.22215005,29.6574975 1.06028306,29.6238742 0.906382687,29.5542541 C0.44142249,29.3434161 0.138329279,28.8481641 0.138329279,28.2987193 L0.138329279,18.8125881 C0.531227886,18.9597396 0.94476725,19.0566539 1.38256856,19.0566539 C1.82000774,19.0566539 2.23390922,18.9597396 2.62644571,18.8125881 L2.62644571,25.0182687 L11.9535327,14.8284208 L2.62644571,4.64015527 L2.62644571,10.8454404 C2.23390922,10.6986844 1.82000774,10.6013745 1.38256856,10.6013745 C0.94476725,10.6013745 0.531227886,10.6986844 0.138329279,10.8454404 L0.138329279,1.35930907 C0.138329279,0.810259813 0.44142249,0.314612325 0.906382687,0.104169815 C1.37098076,-0.106668264 1.90546772,0.00962891301 2.26179235,0.398472874 L13.6250719,12.8114164 L24.9883514,0.398472874 C25.3450381,0.00962891301 25.879163,-0.107459401 26.3441232,0.104169815 C26.8087213,0.314612325 27.1118144,0.810259813 27.1118144,1.35930907 L27.1118144,10.8454404 C26.719278,10.6986844 26.3053765,10.6013745 25.8679373,10.6013745 C25.430136,10.6013745 25.0162345,10.6986844 24.623698,10.8454404 Z M25.8679373,13.3193265 C25.1056778,13.3193265 24.486093,13.9961445 24.486093,14.8284208 C24.486093,15.6610928 25.1056778,16.3387019 25.8679373,16.3387019 C26.6298347,16.3387019 27.2505058,15.6610928 27.2505058,14.8284208 C27.2505058,13.9961445 26.6298347,13.3193265 25.8679373,13.3193265 Z" id="Vignet"></path>
            </g>
            <g id="Brand/Logo-Text" transform="translate(35.777311, 5.779412)">
                <g id="Group">
                    <path d="M5.65750283,0.25498115 C9.48083807,0.25498115 11.3150057,2.0398492 11.3150057,5.69457903 C11.3150057,9.37764006 9.48083807,11.1341769 5.65750283,11.1341769 L2.35083451,11.1341769 L2.35083451,17.792018 L0,17.792018 L0,0.25498115 L5.65750283,0.25498115 Z M5.65750283,8.89600904 C7.87917058,8.89600904 8.93833778,7.87608443 8.93833778,5.72291025 C8.93833778,3.54140486 7.87917058,2.5498115 5.65750283,2.5498115 L2.35083451,2.5498115 L2.35083451,8.92434027 L5.65750283,8.92434027 L5.65750283,8.89600904 Z" id="Shape"></path>
                    <polygon id="Shape" points="25.445846 17.792018 25.445846 9.9725961 18.2900091 9.9725961 18.2900091 17.792018 15.9391746 17.792018 15.9391746 0.25498115 18.2900091 0.25498115 18.2900091 7.73442824 25.445846 7.73442824 25.445846 0.25498115 27.7966806 0.25498115 27.7966806 17.792018"></polygon>
                    <path d="M35.8308512,14.3072756 L34.771684,17.792018 L32.3950162,17.792018 L37.975019,0.25498115 L40.4808535,0.25498115 L46.112523,17.792018 L43.6066885,17.792018 L42.5475213,14.3072756 L35.8308512,14.3072756 Z M36.5025182,12.0407765 L41.9016876,12.0407765 L39.2408529,3.17309876 L39.1891862,3.17309876 L36.5025182,12.0407765 Z" id="Shape"></path>
                    <path d="M53.0358598,17.792018 L50.6850253,17.792018 L50.6850253,0.25498115 L56.4458618,0.25498115 C60.1916967,0.25498115 62.0000312,1.98318672 62.0000312,5.52459161 C62.0000312,8.27272177 60.9150303,9.88760237 58.7450296,10.4825584 L62.5425313,17.792018 L59.8041965,17.792018 L56.2908613,10.7658708 L53.0358598,10.7658708 L53.0358598,17.792018 Z M56.4200284,8.52770293 C58.5900291,8.52770293 59.6233631,7.59277205 59.6233631,5.52459161 C59.6233631,3.48474239 58.5900291,2.52148026 56.4200284,2.52148026 L53.0358598,2.52148026 L53.0358598,8.52770293 L56.4200284,8.52770293 Z" id="Shape"></path>
                    <path d="M66.7275333,6.8278286 C66.7275333,2.40815531 68.8975345,0 72.8500363,0 C76.8025385,0 78.9983727,2.40815531 78.9983727,6.8278286 L78.9983727,11.2191706 C78.9983727,15.6388439 76.828372,18.0469992 72.8500363,18.0469992 C68.923368,18.0469992 66.7275333,15.6388439 66.7275333,11.2191706 L66.7275333,6.8278286 Z M76.6217052,6.91282228 C76.6217052,3.79638602 75.4075377,2.26649911 72.8242028,2.26649911 C70.3183682,2.26649911 69.0525345,3.79638602 69.0525345,6.91282228 L69.0525345,11.1341769 C69.0525345,14.2506132 70.2925354,15.7805001 72.8242028,15.7805001 C75.3558709,15.7805001 76.6217052,14.2506132 76.6217052,11.1341769 L76.6217052,6.91282228 Z" id="Shape"></path>
                    <polygon id="Shape" points="84.9400422 17.792018 82.2792077 17.792018 87.3167103 8.83934653 82.5117079 0.226649911 85.2758761 0.226649911 88.7633774 6.79949732 92.3283795 0.226649911 94.9375472 0.226649911 90.1583782 8.69769034 95.1958809 17.7636868 92.457546 17.7636868 88.6858777 10.6808771"></polygon>
                </g>
            </g>
        </g>
    </g>
</svg>