<?xml version="1.0" encoding="UTF-8"?>
<svg width="265px" height="160px" viewBox="0 0 265 160" version="1.1" xmlns="http://www.w3.org/2000/svg" xmlns:xlink="http://www.w3.org/1999/xlink">
    <title>pharox-logo-rgb</title>
    <g id="Symbols" stroke="none" stroke-width="1" fill="none" fill-rule="evenodd">
        <g id="pharox-logo-rgb" fill="#FFFFFF">
            <g id="Group" transform="translate(0.000000, 86.098655)">
                <path d="M16.1864865,0.932735426 C26.7864865,0.932735426 31.8716216,5.4529148 31.8716216,14.7085202 C31.8716216,24.0358744 26.7864865,28.4843049 16.1864865,28.4843049 L7.01891892,28.4843049 L7.01891892,45.3452915 L0.501351351,45.3452915 L0.501351351,0.932735426 L16.1864865,0.932735426 Z M16.1864865,22.8161435 C22.3459459,22.8161435 25.2824324,20.2331839 25.2824324,14.7802691 C25.2824324,9.25560538 22.3459459,6.74439462 16.1864865,6.74439462 L7.01891892,6.74439462 L7.01891892,22.8878924 L16.1864865,22.8878924 L16.1864865,22.8161435 Z" id="Shape" fill-rule="nonzero"></path>
                <polygon id="Shape" points="71.0486486 45.3452915 71.0486486 25.5426009 51.2094595 25.5426009 51.2094595 45.3452915 44.6918919 45.3452915 44.6918919 0.932735426 51.2094595 0.932735426 51.2094595 19.8744395 71.0486486 19.8744395 71.0486486 0.932735426 77.5662162 0.932735426 77.5662162 45.3452915"></polygon>
                <path d="M99.8405405,36.5201794 L96.9040541,45.3452915 L90.3148649,45.3452915 L105.785135,0.932735426 L112.732432,0.932735426 L128.345946,45.3452915 L121.398649,45.3452915 L118.462162,36.5201794 L99.8405405,36.5201794 Z M101.702703,30.7802691 L116.671622,30.7802691 L109.294595,8.32286996 L109.151351,8.32286996 L101.702703,30.7802691 Z" id="Shape" fill-rule="nonzero"></path>
                <path d="M147.540541,45.3452915 L141.022973,45.3452915 L141.022973,0.932735426 L156.994595,0.932735426 C167.37973,0.932735426 172.393243,5.30941704 172.393243,14.2780269 C172.393243,21.2376682 169.385135,25.3273543 163.368919,26.8340807 L173.897297,45.3452915 L166.305405,45.3452915 L156.564865,27.5515695 L147.540541,27.5515695 L147.540541,45.3452915 Z M156.922973,21.8834081 C162.939189,21.8834081 165.804054,19.5156951 165.804054,14.2780269 C165.804054,9.11210762 162.939189,6.67264574 156.922973,6.67264574 L147.540541,6.67264574 L147.540541,21.8834081 L156.922973,21.8834081 L156.922973,21.8834081 Z" id="Shape" fill-rule="nonzero"></path>
                <path d="M185.5,17.5784753 C185.5,6.38565022 191.516216,0.286995516 202.474324,0.286995516 C213.432432,0.286995516 219.52027,6.38565022 219.52027,17.5784753 L219.52027,28.6995516 C219.52027,39.8923767 213.504054,45.9910314 202.474324,45.9910314 C191.587838,45.9910314 185.5,39.8923767 185.5,28.6995516 L185.5,17.5784753 L185.5,17.5784753 Z M212.931081,17.793722 C212.931081,9.90134529 209.564865,6.02690583 202.402703,6.02690583 C195.455405,6.02690583 191.945946,9.90134529 191.945946,17.793722 L191.945946,28.4843049 C191.945946,36.3766816 195.383784,40.2511211 202.402703,40.2511211 C209.421622,40.2511211 212.931081,36.3766816 212.931081,28.4843049 L212.931081,17.793722 Z" id="Shape" fill-rule="nonzero"></path>
                <polygon id="Shape" points="235.993243 45.3452915 228.616216 45.3452915 242.582432 22.6726457 229.260811 0.860986547 236.924324 0.860986547 246.593243 17.5067265 256.477027 0.860986547 263.710811 0.860986547 250.460811 22.3139013 264.427027 45.2735426 256.835135 45.2735426 246.378378 27.3363229"></polygon>
            </g>
            <g id="Group" transform="translate(0.000000, 144.932735)">
                <polygon id="Shape" points="0.501351351 14.6367713 0.501351351 0.573991031 2.00540541 0.573991031 2.00540541 13.2735426 9.31081081 13.2735426 9.31081081 14.6367713 0.501351351 14.6367713"></polygon>
                <path d="M12.4621622,5.81165919 C12.4621622,2.29596413 14.3243243,0.430493274 17.7621622,0.430493274 C21.1283784,0.430493274 22.9905405,2.367713 22.9905405,5.81165919 L22.9905405,9.47085202 C22.9905405,12.9865471 21.1283784,14.8520179 17.7621622,14.8520179 C14.3243243,14.8520179 12.4621622,12.9147982 12.4621622,9.47085202 L12.4621622,5.81165919 Z M21.4864865,5.88340807 C21.4864865,3.08520179 20.2689189,1.72197309 17.7621622,1.72197309 C15.2554054,1.72197309 13.9662162,3.08520179 13.9662162,5.88340807 L13.9662162,9.32735426 C13.9662162,12.1255605 15.2554054,13.4887892 17.7621622,13.4887892 C20.2689189,13.4887892 21.4864865,12.1255605 21.4864865,9.32735426 L21.4864865,5.88340807 Z" id="Shape" fill-rule="nonzero"></path>
                <path d="M37.672973,9.5426009 C37.672973,12.9865471 35.8824324,14.8520179 32.5162162,14.8520179 C29.0783784,14.8520179 27.2162162,12.9865471 27.2162162,9.47085202 L27.2162162,5.81165919 C27.2162162,2.29596413 29.0783784,0.430493274 32.4445946,0.430493274 C35.0945946,0.430493274 36.8135135,1.65022422 37.5297297,4.01793722 L36.1689189,4.52017937 C35.6675676,2.7264574 34.3783784,1.79372197 32.5162162,1.79372197 C30.0094595,1.79372197 28.7918919,3.15695067 28.7918919,5.95515695 L28.7918919,9.39910314 C28.7918919,12.1973094 30.0094595,13.5605381 32.5878378,13.5605381 C35.022973,13.5605381 36.3121622,12.1973094 36.3121622,9.47085202 L36.3121622,8.96860987 L32.8743243,8.96860987 L32.8743243,7.60538117 L37.7445946,7.60538117 L37.7445946,9.5426009 L37.672973,9.5426009 Z" id="Shape"></path>
                <polygon id="Shape" points="42.2567568 14.6367713 42.2567568 0.573991031 43.7608108 0.573991031 43.7608108 14.6367713"></polygon>
                <path d="M57.9418919,2.367713 L56.9391892,3.37219731 C56.1513514,2.29596413 54.9337838,1.72197309 53.4297297,1.72197309 C51.3527027,1.72197309 49.9918919,2.79820628 49.9918919,4.44843049 C49.9918919,5.81165919 50.8513514,6.4573991 53.5013514,6.8161435 C57.0824324,7.24663677 58.3,8.39461883 58.3,10.8340807 C58.3,13.2735426 56.3662162,14.8520179 53.3581081,14.8520179 C50.9945946,14.8520179 49.1324324,14.0627803 47.9864865,12.5560538 L48.9891892,11.5515695 C50.0635135,12.8430493 51.5675676,13.5605381 53.3581081,13.5605381 C55.4351351,13.5605381 56.7959459,12.4843049 56.7959459,10.9058296 C56.7959459,9.32735426 55.8648649,8.60986547 53,8.1793722 C49.6337838,7.74887892 48.4878378,6.74439462 48.4878378,4.44843049 C48.4878378,2.00896861 50.4216216,0.358744395 53.4297297,0.358744395 C55.3635135,0.358744395 56.9391892,1.07623318 57.9418919,2.367713 Z" id="Shape"></path>
                <polygon id="Shape" points="66.5364865 14.6367713 65.0324324 14.6367713 65.0324324 1.93721973 60.8067568 1.93721973 60.8067568 0.573991031 70.7621622 0.573991031 70.7621622 1.93721973 66.5364865 1.93721973"></polygon>
                <polygon id="Shape" points="74.4864865 14.6367713 74.4864865 0.573991031 75.9905405 0.573991031 75.9905405 14.6367713"></polygon>
                <path d="M91.0310811,11.264574 C90.3864865,13.5605381 88.5959459,14.7802691 85.9459459,14.7802691 C82.6513514,14.7802691 80.7891892,12.8430493 80.7891892,9.39910314 L80.7891892,5.73991031 C80.7891892,2.22421525 82.6513514,0.358744395 85.8743243,0.358744395 C88.4527027,0.358744395 90.1716216,1.65022422 90.8162162,3.87443946 L89.4554054,4.37668161 C88.8824324,2.51121076 87.6648649,1.65022422 85.8743243,1.65022422 C83.4391892,1.65022422 82.2216216,3.01345291 82.2216216,5.81165919 L82.2216216,9.25560538 C82.2216216,12.0538117 83.4391892,13.4170404 85.9459459,13.4170404 C87.8081081,13.4170404 89.0256757,12.4843049 89.5986486,10.690583 L91.0310811,11.264574 Z" id="Shape"></path>
                <path d="M103.922973,2.367713 L102.92027,3.37219731 C102.132432,2.29596413 100.914865,1.72197309 99.4108108,1.72197309 C97.3337838,1.72197309 95.972973,2.79820628 95.972973,4.44843049 C95.972973,5.81165919 96.8324324,6.4573991 99.4824324,6.8161435 C103.063514,7.24663677 104.281081,8.39461883 104.281081,10.8340807 C104.281081,13.2735426 102.347297,14.8520179 99.3391892,14.8520179 C96.9756757,14.8520179 95.1135135,14.0627803 93.9675676,12.5560538 L94.9702703,11.5515695 C96.0445946,12.8430493 97.5486486,13.5605381 99.3391892,13.5605381 C101.416216,13.5605381 102.777027,12.4843049 102.777027,10.9058296 C102.777027,9.32735426 101.845946,8.60986547 98.9810811,8.1793722 C95.6148649,7.74887892 94.4689189,6.74439462 94.4689189,4.44843049 C94.4689189,2.00896861 96.4027027,0.358744395 99.4108108,0.358744395 C101.344595,0.358744395 102.92027,1.07623318 103.922973,2.367713 Z" id="Shape"></path>
                <polygon id="Shape" points="117.889189 14.6367713 117.889189 0.573991031 119.393243 0.573991031 119.393243 14.6367713"></polygon>
                <polygon id="Shape" points="133.359459 14.6367713 126.268919 3.30044843 126.197297 3.30044843 126.197297 14.6367713 124.764865 14.6367713 124.764865 0.573991031 126.197297 0.573991031 133.216216 11.7668161 133.287838 11.7668161 133.287838 0.573991031 134.72027 0.573991031 134.72027 14.6367713"></polygon>
                <polygon id="Shape" points="144.174324 14.6367713 142.67027 14.6367713 142.67027 1.93721973 138.444595 1.93721973 138.444595 0.573991031 148.4 0.573991031 148.4 1.93721973 144.174324 1.93721973"></polygon>
                <polygon id="Shape" points="160.145946 6.8161435 160.145946 8.1793722 153.7 8.1793722 153.7 13.3452915 161.435135 13.3452915 161.435135 14.7085202 152.195946 14.7085202 152.195946 0.64573991 161.435135 0.64573991 161.435135 2.00896861 153.7 2.00896861 153.7 6.95964126 160.145946 6.95964126"></polygon>
                <polygon id="Shape" points="165.947297 14.6367713 165.947297 0.573991031 167.451351 0.573991031 167.451351 13.2735426 174.756757 13.2735426 174.756757 14.6367713 165.947297 14.6367713"></polygon>
                <polygon id="Shape" points="178.552703 14.6367713 178.552703 0.573991031 180.056757 0.573991031 180.056757 13.2735426 187.362162 13.2735426 187.362162 14.6367713 178.552703 14.6367713"></polygon>
                <polygon id="Shape" points="191.086486 14.6367713 191.086486 0.573991031 192.590541 0.573991031 192.590541 14.6367713"></polygon>
                <path d="M207.845946,9.5426009 C207.845946,12.9865471 206.055405,14.8520179 202.689189,14.8520179 C199.251351,14.8520179 197.389189,12.9865471 197.389189,9.47085202 L197.389189,5.81165919 C197.389189,2.29596413 199.251351,0.430493274 202.617568,0.430493274 C205.267568,0.430493274 206.986486,1.65022422 207.702703,4.01793722 L206.341892,4.52017937 C205.840541,2.7264574 204.551351,1.79372197 202.689189,1.79372197 C200.182432,1.79372197 198.964865,3.15695067 198.964865,5.95515695 L198.964865,9.39910314 C198.964865,12.1973094 200.182432,13.5605381 202.760811,13.5605381 C205.195946,13.5605381 206.485135,12.1973094 206.485135,9.47085202 L206.485135,8.96860987 L203.047297,8.96860987 L203.047297,7.60538117 L207.917568,7.60538117 L207.917568,9.5426009 L207.845946,9.5426009 Z" id="Shape"></path>
                <polygon id="Shape" points="220.37973 6.8161435 220.37973 8.1793722 213.933784 8.1793722 213.933784 13.3452915 221.668919 13.3452915 221.668919 14.7085202 212.42973 14.7085202 212.42973 0.64573991 221.668919 0.64573991 221.668919 2.00896861 213.933784 2.00896861 213.933784 6.95964126 220.37973 6.95964126"></polygon>
                <polygon id="Shape" points="234.847297 14.6367713 227.756757 3.30044843 227.685135 3.30044843 227.685135 14.6367713 226.252703 14.6367713 226.252703 0.573991031 227.685135 0.573991031 234.704054 11.7668161 234.775676 11.7668161 234.775676 0.573991031 236.208108 0.573991031 236.208108 14.6367713"></polygon>
                <path d="M251.177027,11.264574 C250.532432,13.5605381 248.741892,14.7802691 246.091892,14.7802691 C242.797297,14.7802691 240.935135,12.8430493 240.935135,9.39910314 L240.935135,5.73991031 C240.935135,2.22421525 242.797297,0.358744395 246.02027,0.358744395 C248.598649,0.358744395 250.317568,1.65022422 250.962162,3.87443946 L249.601351,4.37668161 C249.028378,2.51121076 247.810811,1.65022422 246.02027,1.65022422 C243.585135,1.65022422 242.367568,3.01345291 242.367568,5.81165919 L242.367568,9.25560538 C242.367568,12.0538117 243.585135,13.4170404 246.091892,13.4170404 C247.954054,13.4170404 249.171622,12.4843049 249.744595,10.690583 L251.177027,11.264574 Z" id="Shape"></path>
                <polygon id="Shape" points="263.137838 6.8161435 263.137838 8.1793722 256.691892 8.1793722 256.691892 13.3452915 264.427027 13.3452915 264.427027 14.7085202 255.187838 14.7085202 255.187838 0.64573991 264.427027 0.64573991 264.427027 2.00896861 256.691892 2.00896861 256.691892 6.95964126 263.137838 6.95964126"></polygon>
            </g>
            <path d="M165.087838,33.0044843 C163.082432,33.0044843 161.435135,34.6547085 161.435135,36.6636771 C161.435135,38.6726457 163.082432,40.32287 165.087838,40.32287 C167.093243,40.32287 168.740541,38.6726457 168.740541,36.6636771 C168.740541,34.6547085 167.164865,33.0044843 165.087838,33.0044843 Z M161.793243,26.9775785 L161.793243,11.7668161 L136.940541,36.6636771 L161.793243,61.5605381 L161.793243,46.3497758 C162.867568,46.7085202 163.941892,46.9237668 165.087838,46.9237668 C166.233784,46.9237668 167.37973,46.7085202 168.382432,46.3497758 L168.382432,69.5246637 C168.382432,70.8878924 167.594595,72.1076233 166.305405,72.6098655 C165.875676,72.7533632 165.445946,72.896861 165.016216,72.896861 C164.156757,72.896861 163.297297,72.5381166 162.652703,71.8923767 L132.428378,41.6143498 L102.132432,71.9641256 C101.487838,72.6098655 100.628378,72.9686099 99.7689189,72.9686099 C99.3391892,72.9686099 98.9094595,72.896861 98.4797297,72.6816143 C97.2621622,72.1793722 96.4027027,70.9596413 96.4027027,69.5964126 L96.4027027,46.4215247 C97.477027,46.7802691 98.5513514,46.9955157 99.6972973,46.9955157 C100.843243,46.9955157 101.989189,46.7802691 102.991892,46.4215247 L102.991892,61.632287 L127.844595,36.735426 L103.135135,11.7668161 L103.135135,26.9775785 C102.060811,26.6188341 100.986486,26.4035874 99.8405405,26.4035874 C98.6945946,26.4035874 97.5486486,26.6188341 96.5459459,26.9775785 L96.5459459,3.80269058 C96.5459459,2.43946188 97.3337838,1.21973094 98.622973,0.717488789 C99.8405405,0.215246637 101.272973,0.502242152 102.275676,1.43497758 L132.571622,31.7847534 L162.867568,1.43497758 C163.798649,0.502242152 165.231081,0.215246637 166.52027,0.717488789 C167.737838,1.21973094 168.597297,2.43946188 168.597297,3.80269058 L168.597297,26.9775785 C167.522973,26.6188341 166.448649,26.4035874 165.302703,26.4035874 C163.941892,26.3318386 162.867568,26.6188341 161.793243,26.9775785 Z M99.7689189,33.0044843 C97.7635135,33.0044843 96.1162162,34.6547085 96.1162162,36.6636771 C96.1162162,38.6726457 97.7635135,40.32287 99.7689189,40.32287 C101.774324,40.32287 103.421622,38.6726457 103.421622,36.6636771 C103.421622,34.6547085 101.845946,33.0044843 99.7689189,33.0044843 Z M132.213514,58.9775785 C130.208108,58.9775785 128.560811,60.6995516 128.560811,62.7085202 C128.560811,64.7174888 130.27973,66.367713 132.285135,66.367713 C134.290541,66.367713 135.937838,64.6457399 135.937838,62.6367713 C135.937838,60.6278027 134.218919,58.9058296 132.213514,58.9775785 Z M132.643243,7.10313901 C130.637838,7.10313901 128.990541,8.82511211 128.990541,10.8340807 C128.990541,12.8430493 130.709459,14.4932735 132.714865,14.4932735 C134.72027,14.4932735 136.367568,12.7713004 136.367568,10.7623318 C136.367568,8.68161435 134.72027,7.03139013 132.643243,7.10313901 Z" id="Shape" fill-rule="nonzero"></path>
        </g>
    </g>
</svg>