<?xml version="1.0" encoding="UTF-8" standalone="no"?>
<!-- Generator: Adobe Illustrator 22.0.1, SVG Export Plug-In . SVG Version: 6.00 Build 0)  -->

<svg
   version="1.1"
   id="Laag_1"
   x="0px"
   y="0px"
   viewBox="0 0 841.9 595.3"
   style="enable-background:new 0 0 841.9 595.3;"
   xml:space="preserve"
   xmlns="http://www.w3.org/2000/svg"
   xmlns:svg="http://www.w3.org/2000/svg"><defs
   id="defs203" />
<style
   type="text/css"
   id="style131">
	.st0{fill:#2F287F;}
	.st1{fill:#009CDF;}
	.st2{fill:url(#SVGID_1_);}
</style>
<g
   id="g198">
	<g
   id="g145"
   style="fill:#000000">
		<path
   class="st0"
   d="M258.6,307.3c14.8,0,21.9,6.3,21.9,19.2c0,13-7.1,19.2-21.9,19.2h-12.8v23.5h-9.1v-61.9H258.6z M258.6,337.8    c8.6,0,12.7-3.6,12.7-11.2c0-7.7-4.1-11.2-12.7-11.2h-12.8v22.5H258.6z"
   id="path133"
   style="fill:#000000" />
		<path
   class="st0"
   d="M335.2,369.2v-27.6h-27.7v27.6h-9.1v-61.9h9.1v26.4h27.7v-26.4h9.1v61.9H335.2z"
   id="path135"
   style="fill:#000000" />
		<path
   class="st0"
   d="M375.4,356.9l-4.1,12.3h-9.2l21.6-61.9h9.7l21.8,61.9h-9.7l-4.1-12.3H375.4z M378,348.9h20.9l-10.3-31.3h-0.2    L378,348.9z"
   id="path137"
   style="fill:#000000" />
		<path
   class="st0"
   d="M442,369.2h-9.1v-61.9h22.3c14.5,0,21.5,6.1,21.5,18.6c0,9.7-4.2,15.4-12.6,17.5l14.7,25.8h-10.6l-13.6-24.8    H442V369.2z M455.1,336.5c8.4,0,12.4-3.3,12.4-10.6c0-7.2-4-10.6-12.4-10.6H442v21.2H455.1z"
   id="path139"
   style="fill:#000000" />
		<path
   class="st0"
   d="M495,330.5c0-15.6,8.4-24.1,23.7-24.1c15.3,0,23.8,8.5,23.8,24.1V346c0,15.6-8.4,24.1-23.8,24.1    c-15.2,0-23.7-8.5-23.7-24.1V330.5z M533.3,330.8c0-11-4.7-16.4-14.7-16.4c-9.7,0-14.6,5.4-14.6,16.4v14.9    c0,11,4.8,16.4,14.6,16.4c9.8,0,14.7-5.4,14.7-16.4V330.8z"
   id="path141"
   style="fill:#000000" />
		<path
   class="st0"
   d="M565.5,369.2h-10.3l19.5-31.6l-18.6-30.4h10.7l13.5,23.2l13.8-23.2h10.1l-18.5,29.9l19.5,32h-10.6l-14.6-25    L565.5,369.2z"
   id="path143"
   style="fill:#000000" />
	</g>
	
	<linearGradient
   id="SVGID_1_"
   gradientUnits="userSpaceOnUse"
   x1="420.945"
   y1="287.7243"
   x2="420.945"
   y2="186.5975">
		<stop
   offset="0.1"
   style="stop-color:#009CDF"
   id="stop191" />
		<stop
   offset="0.9"
   style="stop-color:#2F287F"
   id="stop193" />
	</linearGradient>
	<path
   class="st2"
   d="M466.5,232c-2.8,0-5.1,2.3-5.1,5.1s2.3,5.1,5.1,5.1c2.8,0,5.1-2.3,5.1-5.1S469.4,232,466.5,232z M461.9,223.6   v-21.2l-34.7,34.7l34.7,34.7v-21.2c1.5,0.5,3,0.8,4.6,0.8c1.6,0,3.2-0.3,4.6-0.8v32.3c0,1.9-1.1,3.6-2.9,4.3   c-0.6,0.2-1.2,0.4-1.8,0.4c-1.2,0-2.4-0.5-3.3-1.4L420.9,244l-42.3,42.3c-0.9,0.9-2.1,1.4-3.3,1.4c-0.6,0-1.2-0.1-1.8-0.4   c-1.7-0.7-2.9-2.4-2.9-4.3v-32.3c1.5,0.5,3,0.8,4.6,0.8c1.6,0,3.2-0.3,4.6-0.8v21.2l34.7-34.7L380,202.4v21.2   c-1.5-0.5-3-0.8-4.6-0.8c-1.6,0-3.2,0.3-4.6,0.8v-32.3c0-1.9,1.1-3.6,2.9-4.3c1.7-0.7,3.7-0.3,5.1,1l42.3,42.3l42.3-42.3   c1.3-1.3,3.3-1.7,5.1-1c1.7,0.7,2.9,2.4,2.9,4.3v32.3c-1.5-0.5-3-0.8-4.6-0.8C464.9,222.7,463.4,223.1,461.9,223.6z M375.3,232   c-2.8,0-5.1,2.3-5.1,5.1s2.3,5.1,5.1,5.1s5.1-2.3,5.1-5.1S378.2,232,375.3,232z M420.6,268.2c-2.8,0-5.1,2.4-5.1,5.2   s2.4,5.1,5.2,5.1s5.1-2.4,5.1-5.2S423.4,268.1,420.6,268.2z M421.2,195.9c-2.8,0-5.1,2.4-5.1,5.2c0,2.8,2.4,5.1,5.2,5.1   c2.8,0,5.1-2.4,5.1-5.2C426.4,198.1,424.1,195.8,421.2,195.9z"
   id="path196"
   style="fill:#000000;fill-opacity:1" />
</g>
</svg>
